<?xml version="1.0" encoding="utf-8"?>
<!-- Generator: Adobe Illustrator 19.2.1, SVG Export Plug-In . SVG Version: 6.00 Build 0)  -->
<svg version="1.1" id="layer" xmlns="http://www.w3.org/2000/svg" xmlns:xlink="http://www.w3.org/1999/xlink" x="0px" y="0px"
	 viewBox="0 0 652 652" style="enable-background:new 0 0 652 652;" xml:space="preserve">
<style type="text/css">
	.st0{fill:#BEBC00;}
</style>
<g id="Page-1">
	<g id="rise-logo" transform="translate(0.000000, -1.000000)">
		<path id="Fill-1" d="M267.4,72.2c10.7,0,20.4,1.7,29,5.2c8.6,3.5,16,8.2,22.1,14.2c6.1,6,10.8,13,14.1,21
			c3.2,7.9,4.9,16.5,4.9,25.6c0,14.1-3,26.3-8.9,36.6c-5.9,10.3-15.6,18.1-29,23.5v0.7c6.5,1.8,11.8,4.5,16.1,8.2
			c4.2,3.7,7.7,8,10.4,13.1c2.7,5,4.6,10.6,5.9,16.6c1.2,6,2.1,12.1,2.5,18.1c0.2,3.8,0.5,8.3,0.7,13.4c0.2,5.1,0.6,10.4,1.2,15.8
			c0.5,5.4,1.4,10.5,2.7,15.3c1.2,4.8,3.1,8.9,5.5,12.2h-52.6c-2.9-7.6-4.7-16.7-5.4-27.2c-0.7-10.5-1.7-20.6-3-30.2
			c-1.8-12.5-5.6-21.7-11.4-27.5c-5.8-5.8-15.3-8.7-28.5-8.7h-52.6v93.6h-52.6V72.2H267.4z M248.6,180.5c12.1,0,21.1-2.7,27.2-8
			c6-5.4,9.1-14.1,9.1-26.2c0-11.6-3-20.1-9.1-25.3c-6-5.2-15.1-7.9-27.2-7.9h-57.7v67.4H248.6L248.6,180.5z"/>
		<polygon id="Fill-3" points="369.3,311.7 421.9,311.7 421.9,72.2 369.3,72.2 		"/>
		<polygon id="Fill-4" class="st0" points="453.2,311.4 514.9,311.4 514.9,249.6 453.2,249.6 		"/>
		<path id="Fill-5" d="M181.4,507.9c2.9,5.6,6.8,10.1,11.6,13.6c4.8,3.5,10.4,6,16.9,7.7c6.5,1.7,13.2,2.5,20.1,2.5
			c4.7,0,9.7-0.4,15.1-1.2c5.4-0.8,10.4-2.3,15.1-4.5c4.7-2.2,8.6-5.3,11.7-9.2c3.1-3.9,4.7-8.9,4.7-14.9c0-6.5-2.1-11.7-6.2-15.8
			c-4.1-4-9.6-7.4-16.3-10.1c-6.7-2.7-14.3-5-22.8-7c-8.5-2-17.1-4.2-25.8-6.7c-8.9-2.2-17.7-5-26.2-8.2
			c-8.5-3.2-16.1-7.4-22.8-12.6c-6.7-5.1-12.1-11.6-16.3-19.3c-4.1-7.7-6.2-17-6.2-28c0-12.3,2.6-23,7.9-32
			c5.2-9,12.1-16.6,20.6-22.6c8.5-6,18.1-10.5,28.8-13.4c10.7-2.9,21.5-4.4,32.2-4.4c12.5,0,24.5,1.4,36,4.2
			c11.5,2.8,21.7,7.3,30.7,13.6c8.9,6.3,16,14.3,21.3,24c5.2,9.7,7.9,21.5,7.9,35.4h-51c-0.5-7.1-2-13.1-4.5-17.8
			c-2.6-4.7-6-8.4-10.2-11.1c-4.2-2.7-9.1-4.6-14.6-5.7c-5.5-1.1-11.5-1.7-17.9-1.7c-4.2,0-8.5,0.5-12.7,1.3
			c-4.2,0.9-8.1,2.5-11.6,4.7c-3.5,2.2-6.3,5-8.6,8.4c-2.2,3.4-3.4,7.6-3.4,12.7c0,4.7,0.9,8.5,2.7,11.4c1.8,2.9,5.3,5.6,10.6,8
			c5.2,2.5,12.5,4.9,21.8,7.4c9.3,2.5,21.4,5.6,36.4,9.4c4.5,0.9,10.7,2.5,18.6,4.9c7.9,2.3,15.8,6.1,23.6,11.2
			c7.8,5.1,14.6,12,20.3,20.6c5.7,8.6,8.5,19.6,8.5,33c0,11-2.1,21.1-6.4,30.5c-4.3,9.4-10.6,17.5-19,24.3
			c-8.4,6.8-18.8,12.1-31.2,15.9c-12.4,3.8-26.8,5.7-43.1,5.7c-13.2,0-26-1.6-38.4-4.9c-12.4-3.2-23.4-8.3-32.9-15.3
			c-9.5-6.9-17-15.8-22.6-26.5c-5.6-10.7-8.3-23.5-8-38.2h51C177,495.5,178.5,502.3,181.4,507.9"/>
		<polyline id="Fill-6" points="514.8,327.5 514.8,371.7 397.5,371.7 397.5,423 507.7,423 507.7,463.9 397.5,463.9 397.5,522.6 
			514.7,522.6 514.7,566.9 344.8,566.9 344.8,327.5 514.8,327.5 		"/>
	</g>
</g>
</svg>
